<svg width="82" height="130" viewBox="0 0 82 130" fill="none" xmlns="http://www.w3.org/2000/svg">
<path d="M0 127C0 128.381 1.11929 129.5 2.5 129.5C3.88071 129.5 5 128.381 5 127H2.5H0ZM2.5 127H5V15.5H2.5H0V127H2.5ZM2.5 15.5C5 15.5 5 15.5007 5 15.5014C5 15.5015 5 15.5022 5 15.5026C5 15.5034 5 15.504 4.99999 15.5046C4.99999 15.5058 4.99999 15.5067 4.99999 15.5072C4.99998 15.5081 4.99998 15.5077 5 15.506C5.00003 15.5025 5.00013 15.4935 5.0004 15.4794C5.00094 15.4512 5.00215 15.4025 5.00484 15.3353C5.01023 15.2006 5.02149 14.993 5.04493 14.7285C5.09208 14.1964 5.18703 13.4505 5.3761 12.6132C5.76672 10.8833 6.49738 9.03816 7.76777 7.76777L6 6L4.23223 4.23223C2.00262 6.46184 0.98328 9.36673 0.498898 11.5118C0.250465 12.612 0.126674 13.5849 0.0644443 14.2872C0.0331967 14.6398 0.017118 14.9283 0.00883365 15.1354C0.00468707 15.2391 0.00248003 15.3227 0.00130916 15.3841C0.000723362 15.4148 0.000396252 15.44 0.000215292 15.4594C0.000124931 15.4691 7.10487e-05 15.4773 3.98159e-05 15.4841C2.43187e-05 15.4875 1.43051e-05 15.4905 8.34465e-06 15.4932C5.24521e-06 15.4945 3.09944e-06 15.4957 1.90735e-06 15.4969C1.19209e-06 15.4974 7.15256e-07 15.4982 4.76837e-07 15.4985C0 15.4993 0 15.5 2.5 15.5ZM6 6L7.76777 7.76777C9.03816 6.49738 10.8833 5.76672 12.6132 5.3761C13.4505 5.18703 14.1964 5.09208 14.7285 5.04493C14.993 5.02149 15.2006 5.01023 15.3353 5.00484C15.4025 5.00215 15.4512 5.00094 15.4794 5.0004C15.4935 5.00013 15.5025 5.00003 15.506 5C15.5077 4.99998 15.5081 4.99998 15.5072 4.99999C15.5067 4.99999 15.5058 4.99999 15.5046 4.99999C15.504 5 15.5034 5 15.5026 5C15.5022 5 15.5015 5 15.5014 5C15.5007 5 15.5 5 15.5 2.5C15.5 0 15.4993 0 15.4985 4.76837e-07C15.4982 7.15256e-07 15.4974 1.19209e-06 15.4969 1.90735e-06C15.4957 3.09944e-06 15.4945 5.24521e-06 15.4932 8.34465e-06C15.4905 1.43051e-05 15.4875 2.43187e-05 15.4841 3.98159e-05C15.4773 7.10487e-05 15.4691 0.000124931 15.4594 0.000215292C15.44 0.000396252 15.4148 0.000723362 15.3841 0.00130916C15.3227 0.00248003 15.2391 0.00468707 15.1354 0.00883365C14.9283 0.017118 14.6398 0.0331967 14.2872 0.0644443C13.5849 0.126674 12.612 0.250465 11.5118 0.498898C9.36673 0.98328 6.46184 2.00262 4.23223 4.23223L6 6ZM15.5 2.5V5H81.5V2.5V0H15.5V2.5Z" fill="#D0C5B5"/>
<path d="M30.5 48.5H69.5" stroke="#D0C5B5" stroke-width="6" stroke-linecap="round"/>
<path d="M55.5 82.5C55.5 82.5 33 82 32.5 82.5C32 83 32.5 126.5 32.5 126.5" stroke="#D0C5B5" stroke-width="5" stroke-linecap="round"/>
</svg>
