<svg
width="181"
height="40"
viewBox="0 0 181 40"
fill="none"
xmlns="http://www.w3.org/2000/svg"
>
    <path
        d="M0.792 33V32.64L1.44 32.424C1.92 32.256 2.244 32.028 2.412 31.74C2.58 31.452 2.664 31.068 2.664 30.588C2.688 29.148 2.7 27.696 2.7 26.232C2.7 24.768 2.7 23.304 2.7 21.84V20.4C2.7 18.96 2.7 17.52 2.7 16.08C2.7 14.616 2.688 13.164 2.664 11.724C2.664 11.244 2.592 10.86 2.448 10.572C2.328 10.284 2.04 10.056 1.584 9.888L0.792 9.6V9.24H18.216L18.468 15.216H18.108L16.056 11.436C15.816 10.98 15.54 10.62 15.228 10.356C14.916 10.092 14.484 9.96 13.932 9.96H8.136C8.112 11.664 8.1 13.404 8.1 15.18C8.1 16.956 8.1 18.72 8.1 20.472H11.844C12.396 20.472 12.804 20.352 13.068 20.112C13.332 19.872 13.584 19.524 13.824 19.068L14.58 17.7H14.94V24H14.58L13.788 22.632C13.548 22.2 13.296 21.852 13.032 21.588C12.792 21.324 12.396 21.192 11.844 21.192H8.1C8.1 22.872 8.1 24.48 8.1 26.016C8.1 27.528 8.112 29.016 8.136 30.48C8.136 31.416 8.592 32.028 9.504 32.316L10.584 32.64V33H0.792ZM18.117 33V32.64L18.837 32.352C19.317 32.184 19.629 31.956 19.773 31.668C19.941 31.38 20.025 30.996 20.025 30.516V11.724C20.025 11.244 19.953 10.86 19.809 10.572C19.665 10.284 19.341 10.056 18.837 9.888L18.117 9.6V9.24H27.369V9.6L26.649 9.888C26.169 10.056 25.845 10.284 25.677 10.572C25.533 10.86 25.461 11.244 25.461 11.724V30.516C25.461 30.996 25.533 31.38 25.677 31.668C25.845 31.932 26.169 32.16 26.649 32.352L27.369 32.64V33H18.117ZM31.9691 33V32.64L33.4451 32.28C34.4291 32.064 34.9211 31.464 34.9211 30.48V9.96H31.8611C30.9731 9.96 30.3371 10.2 29.9531 10.68C29.5691 11.136 29.1611 11.772 28.7291 12.588L27.4331 15.108H27.0731L27.2531 9.24H48.0251L48.1691 15.108H47.8091L46.5131 12.588C46.1051 11.772 45.7091 11.136 45.3251 10.68C44.9411 10.2 44.3051 9.96 43.4171 9.96H40.3571V30.48C40.3571 31.464 40.8491 32.064 41.8331 32.28L43.3091 32.64V33H31.9691ZM47.9154 33V32.64L48.6714 32.388C49.1514 32.22 49.4634 32.004 49.6074 31.74C49.7514 31.452 49.8234 31.056 49.8234 30.552V11.724C49.8234 11.244 49.7514 10.872 49.6074 10.608C49.4874 10.32 49.1994 10.092 48.7434 9.924L47.9154 9.6V9.24H58.2114C61.0434 9.24 63.2154 9.78 64.7274 10.86C66.2394 11.916 66.9954 13.392 66.9954 15.288C66.9954 16.344 66.5994 17.4 65.8074 18.456C65.0154 19.512 63.7674 20.328 62.0634 20.904L67.0674 30.84C67.2834 31.248 67.5234 31.584 67.7874 31.848C68.0754 32.088 68.4474 32.304 68.9034 32.496L69.3714 32.676V33H62.9274L57.5994 21.66H55.1514V30.552C55.1514 31.008 55.2234 31.38 55.3674 31.668C55.5114 31.956 55.8114 32.172 56.2674 32.316L57.1314 32.64V33H47.9154ZM55.1514 20.94H56.8794C58.6074 20.94 59.8554 20.484 60.6234 19.572C61.3914 18.636 61.7754 17.256 61.7754 15.432C61.7754 13.584 61.4154 12.216 60.6954 11.328C59.9754 10.416 58.7634 9.96 57.0594 9.96H55.1514V20.94ZM68.7209 33V32.64L69.5489 32.316C69.9569 32.148 70.2329 31.932 70.3769 31.668C70.5449 31.38 70.6289 30.996 70.6289 30.516V11.724C70.6289 11.244 70.5569 10.872 70.4129 10.608C70.2929 10.32 70.0049 10.092 69.5489 9.924L68.7209 9.6V9.24H85.9649L86.1809 14.784H85.8209L84.2729 11.4C84.0569 10.968 83.8289 10.62 83.5889 10.356C83.3489 10.092 82.9889 9.96 82.5089 9.96H76.0289V20.364H79.8809C80.3609 20.364 80.7209 20.244 80.9609 20.004C81.2249 19.74 81.4529 19.392 81.6449 18.96L82.3649 17.52H82.7249V24H82.3649L81.6449 22.488C81.4289 22.056 81.2009 21.72 80.9609 21.48C80.7209 21.216 80.3609 21.084 79.8809 21.084H76.0289V32.28H83.3009C83.7809 32.28 84.1529 32.16 84.4169 31.92C84.6809 31.656 84.8969 31.296 85.0649 30.84L86.5409 27.456H86.9009L86.6849 33H68.7209ZM94.6297 33.648C93.3097 33.648 91.9657 33.48 90.5977 33.144C89.2297 32.832 88.0897 32.412 87.1777 31.884L87.3577 26.988H87.7177L88.8337 29.328C89.1697 30 89.5297 30.6 89.9137 31.128C90.2977 31.632 90.8257 32.028 91.4977 32.316C91.9777 32.556 92.4337 32.724 92.8657 32.82C93.3217 32.892 93.8257 32.928 94.3777 32.928C95.8417 32.928 96.9937 32.532 97.8337 31.74C98.6977 30.948 99.1297 29.928 99.1297 28.68C99.1297 27.504 98.8417 26.592 98.2657 25.944C97.6897 25.272 96.7657 24.624 95.4937 24L94.0177 23.352C91.9537 22.44 90.3337 21.396 89.1577 20.22C88.0057 19.02 87.4297 17.436 87.4297 15.468C87.4297 14.052 87.7897 12.828 88.5097 11.796C89.2537 10.764 90.2737 9.972 91.5697 9.42C92.8897 8.868 94.4257 8.592 96.1777 8.592C97.4497 8.592 98.6497 8.76 99.7777 9.096C100.93 9.432 101.926 9.888 102.766 10.464L102.55 14.784H102.19L100.714 12.084C100.306 11.244 99.8977 10.656 99.4897 10.32C99.0817 9.96 98.6137 9.708 98.0857 9.564C97.7737 9.468 97.4857 9.408 97.2217 9.384C96.9577 9.336 96.6217 9.312 96.2137 9.312C94.9897 9.312 93.9577 9.672 93.1177 10.392C92.2777 11.088 91.8577 12.036 91.8577 13.236C91.8577 14.46 92.1817 15.444 92.8297 16.188C93.4777 16.908 94.4257 17.556 95.6737 18.132L97.3297 18.852C99.6337 19.86 101.29 20.94 102.298 22.092C103.306 23.22 103.81 24.684 103.81 26.484C103.81 28.596 103.006 30.324 101.398 31.668C99.8137 32.988 97.5577 33.648 94.6297 33.648ZM103.722 33V32.64L104.55 32.316C104.958 32.148 105.234 31.932 105.378 31.668C105.546 31.38 105.63 30.996 105.63 30.516V11.724C105.63 11.244 105.558 10.872 105.414 10.608C105.294 10.32 105.006 10.092 104.55 9.924L103.722 9.6V9.24H120.966L121.182 14.784H120.822L119.274 11.4C119.058 10.968 118.83 10.62 118.59 10.356C118.35 10.092 117.99 9.96 117.51 9.96H111.03V20.364H114.882C115.362 20.364 115.722 20.244 115.962 20.004C116.226 19.74 116.454 19.392 116.646 18.96L117.366 17.52H117.726V24H117.366L116.646 22.488C116.43 22.056 116.202 21.72 115.962 21.48C115.722 21.216 115.362 21.084 114.882 21.084H111.03V32.28H118.302C118.782 32.28 119.154 32.16 119.418 31.92C119.682 31.656 119.898 31.296 120.066 30.84L121.542 27.456H121.902L121.686 33H103.722ZM121.891 33V32.64L122.647 32.388C123.127 32.22 123.439 32.004 123.583 31.74C123.727 31.452 123.799 31.056 123.799 30.552V11.724C123.799 11.244 123.727 10.872 123.583 10.608C123.463 10.32 123.175 10.092 122.719 9.924L121.891 9.6V9.24H132.187C135.019 9.24 137.191 9.78 138.703 10.86C140.215 11.916 140.971 13.392 140.971 15.288C140.971 16.344 140.575 17.4 139.783 18.456C138.991 19.512 137.743 20.328 136.039 20.904L141.043 30.84C141.259 31.248 141.499 31.584 141.763 31.848C142.051 32.088 142.423 32.304 142.879 32.496L143.347 32.676V33H136.903L131.575 21.66H129.127V30.552C129.127 31.008 129.199 31.38 129.343 31.668C129.487 31.956 129.787 32.172 130.243 32.316L131.107 32.64V33H121.891ZM129.127 20.94H130.855C132.583 20.94 133.831 20.484 134.599 19.572C135.367 18.636 135.751 17.256 135.751 15.432C135.751 13.584 135.391 12.216 134.671 11.328C133.951 10.416 132.739 9.96 131.035 9.96H129.127V20.94ZM149.984 33.108L142.28 11.652C142.112 11.172 141.884 10.8 141.596 10.536C141.332 10.248 140.96 10.032 140.48 9.888L139.616 9.6V9.24H149.984V9.6L148.868 9.924C148.316 10.068 148.004 10.32 147.932 10.68C147.884 11.04 147.944 11.484 148.112 12.012L153.44 27.816L158.804 11.976C158.996 11.424 159.08 10.968 159.056 10.608C159.056 10.248 158.78 9.996 158.228 9.852L157.292 9.6V9.24H162.332V9.6L161.36 9.888C160.904 10.008 160.58 10.224 160.388 10.536C160.196 10.824 160.016 11.208 159.848 11.688L152.648 33.108H149.984ZM161.498 33V32.64L162.326 32.316C162.734 32.148 163.01 31.932 163.154 31.668C163.322 31.38 163.406 30.996 163.406 30.516V11.724C163.406 11.244 163.334 10.872 163.19 10.608C163.07 10.32 162.782 10.092 162.326 9.924L161.498 9.6V9.24H178.742L178.958 14.784H178.598L177.05 11.4C176.834 10.968 176.606 10.62 176.366 10.356C176.126 10.092 175.766 9.96 175.286 9.96H168.806V20.364H172.658C173.138 20.364 173.498 20.244 173.738 20.004C174.002 19.74 174.23 19.392 174.422 18.96L175.142 17.52H175.502V24H175.142L174.422 22.488C174.206 22.056 173.978 21.72 173.738 21.48C173.498 21.216 173.138 21.084 172.658 21.084H168.806V32.28H176.078C176.558 32.28 176.93 32.16 177.194 31.92C177.458 31.656 177.674 31.296 177.842 30.84L179.318 27.456H179.678L179.462 33H161.498Z"
        fill="#D8DADF"
    />
</svg>