<svg width="855" height="175" viewBox="0 0 855 175" fill="none" xmlns="http://www.w3.org/2000/svg">
<path d="M0 149.75C0 151.131 1.11929 152.25 2.5 152.25C3.88071 152.25 5 151.131 5 149.75H2.5H0ZM2.5 149.75H5V38.25H2.5H0V149.75H2.5ZM2.5 38.25C5 38.25 5 38.2507 5 38.2514C5 38.2515 5 38.2522 5 38.2526C5 38.2534 5 38.254 4.99999 38.2546C4.99999 38.2558 4.99999 38.2567 4.99999 38.2572C4.99998 38.2581 4.99998 38.2577 5 38.256C5.00003 38.2525 5.00013 38.2435 5.0004 38.2294C5.00094 38.2012 5.00215 38.1525 5.00484 38.0853C5.01023 37.9506 5.02149 37.743 5.04493 37.4785C5.09208 36.9464 5.18703 36.2005 5.3761 35.3632C5.76672 33.6333 6.49738 31.7882 7.76777 30.5178L6 28.75L4.23223 26.9822C2.00262 29.2118 0.98328 32.1167 0.498898 34.2618C0.250465 35.362 0.126674 36.3349 0.0644443 37.0372C0.0331967 37.3898 0.017118 37.6783 0.00883365 37.8854C0.00468707 37.9891 0.00248003 38.0727 0.00130916 38.1341C0.000723362 38.1648 0.000396252 38.19 0.000215292 38.2094C0.000124931 38.2191 7.10487e-05 38.2273 3.98159e-05 38.2341C2.43187e-05 38.2375 1.43051e-05 38.2405 8.34465e-06 38.2432C5.24521e-06 38.2445 3.09944e-06 38.2457 1.90735e-06 38.2469C1.19209e-06 38.2474 7.15256e-07 38.2482 4.76837e-07 38.2485C0 38.2493 0 38.25 2.5 38.25ZM6 28.75L7.76777 30.5178C9.03816 29.2474 10.8833 28.5167 12.6132 28.1261C13.4505 27.937 14.1964 27.8421 14.7285 27.7949C14.993 27.7715 15.2006 27.7602 15.3353 27.7548C15.4025 27.7521 15.4512 27.7509 15.4794 27.7504C15.4935 27.7501 15.5025 27.75 15.506 27.75C15.5077 27.75 15.5081 27.75 15.5072 27.75C15.5067 27.75 15.5058 27.75 15.5046 27.75C15.504 27.75 15.5034 27.75 15.5026 27.75C15.5022 27.75 15.5015 27.75 15.5014 27.75C15.5007 27.75 15.5 27.75 15.5 25.25C15.5 22.75 15.4993 22.75 15.4985 22.75C15.4982 22.75 15.4974 22.75 15.4969 22.75C15.4957 22.75 15.4945 22.75 15.4932 22.75C15.4905 22.75 15.4875 22.75 15.4841 22.75C15.4773 22.7501 15.4691 22.7501 15.4594 22.7502C15.44 22.7504 15.4148 22.7507 15.3841 22.7513C15.3227 22.7525 15.2391 22.7547 15.1354 22.7588C14.9283 22.7671 14.6398 22.7832 14.2872 22.8144C13.5849 22.8767 12.612 23.0005 11.5118 23.2489C9.36673 23.7333 6.46184 24.7526 4.23223 26.9822L6 28.75ZM15.5 25.25V27.75H81.5V25.25V22.75H15.5V25.25Z" fill="#D0C5B5"/>
<path d="M30.5 71.25H69.5" stroke="#D0C5B5" stroke-width="6" stroke-linecap="round"/>
<path d="M55.5 105.25C55.5 105.25 33 104.75 32.5 105.25C32 105.75 32.5 149.25 32.5 149.25" stroke="#D0C5B5" stroke-width="5" stroke-linecap="round"/>
<path d="M111.5 37.5L112.5 137.5" stroke="#D0C5B5" stroke-width="2"/>
<path d="M135.316 132V130.72L137.62 129.952C139.327 129.355 140.479 128.544 141.076 127.52C141.673 126.496 141.972 125.131 141.972 123.424C142.057 118.304 142.1 113.141 142.1 107.936C142.1 102.731 142.1 97.5253 142.1 92.32V87.2C142.1 82.08 142.1 76.96 142.1 71.84C142.1 66.6347 142.057 61.472 141.972 56.352C141.972 54.6453 141.716 53.28 141.204 52.256C140.777 51.232 139.753 50.4213 138.132 49.824L135.316 48.8V47.52H197.268L198.164 68.768H196.884L189.588 55.328C188.735 53.7067 187.753 52.4267 186.644 51.488C185.535 50.5493 183.999 50.08 182.036 50.08H161.428C161.343 56.1387 161.3 62.3253 161.3 68.64C161.3 74.9547 161.3 81.2267 161.3 87.456H174.612C176.575 87.456 178.025 87.0293 178.964 86.176C179.903 85.3227 180.799 84.0853 181.652 82.464L184.34 77.6H185.62V100H184.34L181.524 95.136C180.671 93.6 179.775 92.3627 178.836 91.424C177.983 90.4853 176.575 90.016 174.612 90.016H161.3C161.3 95.9893 161.3 101.707 161.3 107.168C161.3 112.544 161.343 117.835 161.428 123.04C161.428 126.368 163.049 128.544 166.292 129.568L170.132 130.72V132H135.316ZM201.516 132V130.72L204.076 129.696C205.783 129.099 206.892 128.288 207.404 127.264C208.001 126.24 208.3 124.875 208.3 123.168V56.352C208.3 54.6453 208.044 53.28 207.532 52.256C207.02 51.232 205.868 50.4213 204.076 49.824L201.516 48.8V47.52H234.412V48.8L231.852 49.824C230.145 50.4213 228.993 51.232 228.396 52.256C227.884 53.28 227.628 54.6453 227.628 56.352V123.168C227.628 124.875 227.884 126.24 228.396 127.264C228.993 128.203 230.145 129.013 231.852 129.696L234.412 130.72V132H201.516ZM255.368 132V130.72L260.616 129.44C264.115 128.672 265.864 126.539 265.864 123.04V50.08H254.984C251.827 50.08 249.565 50.9333 248.2 52.64C246.835 54.2613 245.384 56.5227 243.848 59.424L239.24 68.384H237.96L238.6 47.52H312.456L312.968 68.384H311.688L307.08 59.424C305.629 56.5227 304.221 54.2613 302.856 52.64C301.491 50.9333 299.229 50.08 296.072 50.08H285.192V123.04C285.192 126.539 286.941 128.672 290.44 129.44L295.688 130.72V132H255.368ZM316.666 132V130.72L319.354 129.824C321.061 129.227 322.17 128.459 322.682 127.52C323.194 126.496 323.45 125.088 323.45 123.296V56.352C323.45 54.6453 323.194 53.3227 322.682 52.384C322.255 51.36 321.231 50.5493 319.61 49.952L316.666 48.8V47.52H353.274C363.343 47.52 371.066 49.44 376.442 53.28C381.818 57.0347 384.506 62.2827 384.506 69.024C384.506 72.7787 383.098 76.5333 380.282 80.288C377.466 84.0427 373.029 86.944 366.97 88.992L384.762 124.32C385.53 125.771 386.383 126.965 387.322 127.904C388.346 128.757 389.669 129.525 391.29 130.208L392.954 130.848V132H370.042L351.098 91.68H342.394V123.296C342.394 124.917 342.65 126.24 343.162 127.264C343.674 128.288 344.741 129.056 346.362 129.568L349.434 130.72V132H316.666ZM342.394 89.12H348.538C354.682 89.12 359.119 87.4987 361.85 84.256C364.581 80.928 365.946 76.0213 365.946 69.536C365.946 62.9653 364.666 58.1013 362.106 54.944C359.546 51.7013 355.237 50.08 349.178 50.08H342.394V89.12ZM395.241 132V130.72L398.185 129.568C399.636 128.971 400.617 128.203 401.129 127.264C401.726 126.24 402.025 124.875 402.025 123.168V56.352C402.025 54.6453 401.769 53.3227 401.257 52.384C400.83 51.36 399.806 50.5493 398.185 49.952L395.241 48.8V47.52H456.553L457.321 67.232H456.041L450.537 55.2C449.769 53.664 448.958 52.4267 448.105 51.488C447.252 50.5493 445.972 50.08 444.265 50.08H421.225V87.072H434.921C436.628 87.072 437.908 86.6453 438.761 85.792C439.7 84.8533 440.51 83.616 441.193 82.08L443.753 76.96H445.033V100H443.753L441.193 94.624C440.425 93.088 439.614 91.8933 438.761 91.04C437.908 90.1013 436.628 89.632 434.921 89.632H421.225V129.44H447.081C448.788 129.44 450.11 129.013 451.049 128.16C451.988 127.221 452.756 125.941 453.353 124.32L458.601 112.288H459.881L459.113 132H395.241ZM491.961 134.304C487.268 134.304 482.489 133.707 477.625 132.512C472.761 131.403 468.708 129.909 465.465 128.032L466.105 110.624H467.385L471.353 118.944C472.548 121.333 473.828 123.467 475.193 125.344C476.558 127.136 478.436 128.544 480.825 129.568C482.532 130.421 484.153 131.019 485.689 131.36C487.31 131.616 489.102 131.744 491.065 131.744C496.27 131.744 500.366 130.336 503.353 127.52C506.425 124.704 507.961 121.077 507.961 116.64C507.961 112.459 506.937 109.216 504.889 106.912C502.841 104.523 499.556 102.219 495.033 100L489.785 97.696C482.446 94.4533 476.686 90.7413 472.505 86.56C468.409 82.2933 466.361 76.6613 466.361 69.664C466.361 64.6293 467.641 60.2773 470.201 56.608C472.846 52.9387 476.473 50.1227 481.081 48.16C485.774 46.1973 491.236 45.216 497.465 45.216C501.988 45.216 506.254 45.8133 510.265 47.008C514.361 48.2027 517.902 49.824 520.889 51.872L520.121 67.232H518.841L513.593 57.632C512.142 54.6453 510.692 52.5547 509.241 51.36C507.79 50.08 506.126 49.184 504.249 48.672C503.14 48.3307 502.116 48.1173 501.177 48.032C500.238 47.8613 499.044 47.776 497.593 47.776C493.241 47.776 489.572 49.056 486.585 51.616C483.598 54.0907 482.105 57.4613 482.105 61.728C482.105 66.08 483.257 69.5787 485.561 72.224C487.865 74.784 491.236 77.088 495.673 79.136L501.561 81.696C509.753 85.28 515.641 89.12 519.225 93.216C522.809 97.2267 524.601 102.432 524.601 108.832C524.601 116.341 521.742 122.485 516.025 127.264C510.393 131.957 502.372 134.304 491.961 134.304ZM528.891 132V130.72L531.835 129.568C533.286 128.971 534.267 128.203 534.779 127.264C535.376 126.24 535.675 124.875 535.675 123.168V56.352C535.675 54.6453 535.419 53.3227 534.907 52.384C534.48 51.36 533.456 50.5493 531.835 49.952L528.891 48.8V47.52H590.203L590.971 67.232H589.691L584.187 55.2C583.419 53.664 582.608 52.4267 581.755 51.488C580.902 50.5493 579.622 50.08 577.915 50.08H554.875V87.072H568.571C570.278 87.072 571.558 86.6453 572.411 85.792C573.35 84.8533 574.16 83.616 574.843 82.08L577.403 76.96H578.683V100H577.403L574.843 94.624C574.075 93.088 573.264 91.8933 572.411 91.04C571.558 90.1013 570.278 89.632 568.571 89.632H554.875V129.44H580.731C582.438 129.44 583.76 129.013 584.699 128.16C585.638 127.221 586.406 125.941 587.003 124.32L592.251 112.288H593.531L592.763 132H528.891ZM598.091 132V130.72L600.779 129.824C602.486 129.227 603.595 128.459 604.107 127.52C604.619 126.496 604.875 125.088 604.875 123.296V56.352C604.875 54.6453 604.619 53.3227 604.107 52.384C603.68 51.36 602.656 50.5493 601.035 49.952L598.091 48.8V47.52H634.699C644.768 47.52 652.491 49.44 657.867 53.28C663.243 57.0347 665.931 62.2827 665.931 69.024C665.931 72.7787 664.523 76.5333 661.707 80.288C658.891 84.0427 654.454 86.944 648.395 88.992L666.187 124.32C666.955 125.771 667.808 126.965 668.747 127.904C669.771 128.757 671.094 129.525 672.715 130.208L674.379 130.848V132H651.467L632.523 91.68H623.819V123.296C623.819 124.917 624.075 126.24 624.587 127.264C625.099 128.288 626.166 129.056 627.787 129.568L630.859 130.72V132H598.091ZM623.819 89.12H629.963C636.107 89.12 640.544 87.4987 643.275 84.256C646.006 80.928 647.371 76.0213 647.371 69.536C647.371 62.9653 646.091 58.1013 643.531 54.944C640.971 51.7013 636.662 50.08 630.603 50.08H623.819V89.12ZM702.577 132.384L675.185 56.096C674.588 54.3893 673.777 53.0667 672.753 52.128C671.814 51.104 670.492 50.336 668.785 49.824L665.713 48.8V47.52H702.577V48.8L698.609 49.952C696.646 50.464 695.537 51.36 695.281 52.64C695.11 53.92 695.324 55.4987 695.921 57.376L714.865 113.568L733.937 57.248C734.62 55.2853 734.918 53.664 734.833 52.384C734.833 51.104 733.852 50.208 731.889 49.696L728.561 48.8V47.52H746.481V48.8L743.025 49.824C741.404 50.2507 740.252 51.0187 739.569 52.128C738.886 53.152 738.246 54.5173 737.649 56.224L712.049 132.384H702.577ZM748.116 132V130.72L751.06 129.568C752.511 128.971 753.492 128.203 754.004 127.264C754.601 126.24 754.9 124.875 754.9 123.168V56.352C754.9 54.6453 754.644 53.3227 754.132 52.384C753.705 51.36 752.681 50.5493 751.06 49.952L748.116 48.8V47.52H809.428L810.196 67.232H808.916L803.412 55.2C802.644 53.664 801.833 52.4267 800.98 51.488C800.127 50.5493 798.847 50.08 797.14 50.08H774.1V87.072H787.796C789.503 87.072 790.783 86.6453 791.636 85.792C792.575 84.8533 793.385 83.616 794.068 82.08L796.628 76.96H797.908V100H796.628L794.068 94.624C793.3 93.088 792.489 91.8933 791.636 91.04C790.783 90.1013 789.503 89.632 787.796 89.632H774.1V129.44H799.956C801.663 129.44 802.985 129.013 803.924 128.16C804.863 127.221 805.631 125.941 806.228 124.32L811.476 112.288H812.756L811.988 132H748.116Z" fill="#D0C5B5"/>
</svg>
